<?xml version="1.0" encoding="UTF-8" standalone="no"?>
<svg
   xmlns:dc="http://purl.org/dc/elements/1.1/"
   xmlns:cc="http://creativecommons.org/ns#"
   xmlns:rdf="http://www.w3.org/1999/02/22-rdf-syntax-ns#"
   xmlns:svg="http://www.w3.org/2000/svg"
   xmlns="http://www.w3.org/2000/svg"
   xmlns:sodipodi="http://sodipodi.sourceforge.net/DTD/sodipodi-0.dtd"
   xmlns:inkscape="http://www.inkscape.org/namespaces/inkscape"
   width="18"
   height="18"
   version="1.1"
   id="svg1527"
   sodipodi:docname="emptycheck-blue.svg"
   inkscape:version="0.92.2 2405546, 2018-03-11">
  <metadata
     id="metadata1533">
    <rdf:RDF>
      <cc:Work
         rdf:about="">
        <dc:format>image/svg+xml</dc:format>
        <dc:type
           rdf:resource="http://purl.org/dc/dcmitype/StillImage" />
      </cc:Work>
    </rdf:RDF>
  </metadata>
  <defs
     id="defs1531" />
  <sodipodi:namedview
     pagecolor="#ffffff"
     bordercolor="#666666"
     borderopacity="1"
     objecttolerance="10"
     gridtolerance="10"
     guidetolerance="10"
     inkscape:pageopacity="0"
     inkscape:pageshadow="2"
     inkscape:window-width="640"
     inkscape:window-height="1058"
     id="namedview1529"
     showgrid="false"
     inkscape:zoom="9.8333333"
     inkscape:cx="-2.8983051"
     inkscape:cy="9"
     inkscape:window-x="4566"
     inkscape:window-y="0"
     inkscape:window-maximized="0"
     inkscape:current-layer="svg1527" />
  <path
     d="m 17.41,15.972 c 0.093,1.03 -1.267,1.523 -2.32,1.431 L 2.53,17.41 C 1.92,17.729 0.503,17.01 0.543,16.161 L 0.645,2.502 C 0.483,2.068 0.811,0.424 2.668,0.672 l 13.215,0.002 c 1.258,0.147 1.304,0.958 1.5,1.354 M 16,0 H 2 C 0.9,0 0,0.9 0,2 v 14 c 0,1.1 0.9,2 2,2 h 14 c 1.1,0 2,-0.9 2,-2 V 2 C 18,0.9 17.1,0 16,0 Z"
     id="path1523"
     inkscape:connector-curvature="0"
     style="fill:#3c88d0" />
  <path
     d="M -3,-3 H 21 V 21 H -3 Z"
     id="path1525"
     inkscape:connector-curvature="0"
     style="fill:none" />
</svg>
