<?xml version="1.0" encoding="UTF-8"?>
<svg width="257px" height="48px" viewBox="0 0 257 48" version="1.1" xmlns="http://www.w3.org/2000/svg" xmlns:xlink="http://www.w3.org/1999/xlink">
    <!-- Generator: Sketch 51.2 (57519) - http://www.bohemiancoding.com/sketch -->
    <title>OnlyWire-logo</title>
    <desc>Created with Sketch.</desc>
    <defs></defs>
    <g id="OnlyWire-Home" stroke="none" stroke-width="1" fill="none" fill-rule="evenodd">
        <g id="WP-Extension-Settings" transform="translate(-230.000000, -150.000000)" fill="#FFFFFF">
            <g id="Group-3" transform="translate(182.000000, 108.000000)">
                <path d="M80.1581213,76.8779238 C75.0906091,70.3254384 68.6550638,72.5891931 62.848329,72.3994967 C54.9942574,72.1421463 55.0063758,72.3358224 54.9834854,64.5237793 C54.9538627,54.4546143 54.1910765,54.8883956 64.5361533,54.9659987 C68.4537637,54.9951828 72.3720473,54.9719682 76.2896577,54.9732947 C78.9011736,54.9746213 80.1884173,56.2063214 80.1702397,58.8342136 C80.1305182,64.4567886 80.1581213,70.080027 80.1581213,76.8779238 M78.1134774,49.5072524 C83.8724118,50.0053713 86.8077583,53.5174079 86.8501727,59.2454436 C86.875756,62.6652851 86.8663306,66.0851267 86.8535389,69.5056315 C86.8286289,76.1363833 83.4455747,79.64842 76.6188743,79.9628119 C73.6020652,80.1020995 70.5731377,79.9860265 66.7982552,79.9860265 C63.7612487,79.7386252 59.9372193,80.4562879 56.1717622,79.5714802 C51.2240875,78.4080973 48.3419273,75.2336672 48.1231228,70.3042136 C47.9575047,66.560031 47.9601976,62.79794 48.1237961,59.0537573 C48.3648177,53.5479186 51.698725,49.9211355 57.3169513,49.4847011 C64.2331932,48.9467857 71.1992552,48.9096424 78.1134774,49.5072524 Z M278.09399,68.0681175 C275.975289,68.0110759 275.821116,68.8341991 276.655266,70.3942199 C277.752655,72.4463902 279.632354,73.2383395 281.835883,73.5646704 C287.297917,74.3725383 292.794959,73.9367672 298.276517,74.0256459 C300.35617,74.0594729 302.660013,73.8386026 302.737436,76.6654771 C302.824958,79.8624585 300.245757,79.4883719 298.140522,79.4187281 C291.659869,79.2058171 285.149593,79.9984297 278.695871,78.8575982 C271.986988,77.671664 269.309494,74.5184586 269.305455,67.7756135 C269.304108,65.4581336 269.292663,63.1399905 269.308148,60.8225105 C269.340463,55.9852521 270.948172,53.2280214 275.582788,51.7655019 C283.207956,49.35848 291.072126,49.4281238 298.766639,51.3449861 C303.645643,52.5601044 305.008963,54.9916674 304.97934,60.1811244 C304.9275,69.1485911 306.064611,68.0342905 296.914543,68.095975 C294.562226,68.1118935 292.209236,68.0986281 289.856247,68.0986281 C285.93527,68.0986281 282.012274,68.1749046 278.09399,68.0681175 Z M178.781792,50.2389101 C181.202106,50.2760535 182.217359,51.203974 182.158787,53.6222716 C182.055107,57.9242678 182.129837,62.2302436 182.128491,66.5348929 C182.127144,70.3978016 182.160133,74.2607103 182.119739,78.123619 C182.046355,85.1689171 178.900956,88.8202413 171.914024,89.6725486 C169.038596,90.0227574 166.104596,89.9060211 163.196852,89.997553 C161.165,90.0618906 160.376631,88.8514152 160.355087,87.0904223 C160.33287,85.3493277 161.402656,84.4658465 163.11539,84.4386523 C165.903296,84.3935496 168.698607,84.9692716 171.480454,84.2967116 C172.455986,84.0612493 173.494129,84.004871 174.238737,83.2202176 C175.121361,82.289644 175.725935,81.0672297 175.406817,79.9277247 C175.073561,78.7364843 173.691389,79.3175125 172.779143,79.2916448 C167.634208,79.1437347 162.483886,79.4694023 157.340971,78.8658228 C150.116383,78.0188217 147.444948,75.2158251 147.442928,68.1764964 C147.440909,63.3200031 147.496115,58.4628464 147.418018,53.6076796 C147.379643,51.1946882 148.456162,50.2647778 150.852912,50.243553 C153.395084,50.2203384 154.152484,51.4215279 154.114783,53.7270689 C154.031973,58.803106 154.224521,63.8857759 154.030627,68.9558436 C153.930314,71.5950115 155.099066,73.0396226 157.482352,73.352688 C163.050085,74.0842794 168.666965,73.6644268 174.263647,73.6909578 C176.118436,73.6995804 175.579841,72.242367 175.5859,71.2653642 C175.623601,65.4159494 175.664669,59.5658713 175.573781,53.7171198 C175.538099,51.4215279 176.192493,50.1991137 178.781792,50.2389101 Z M232.704242,50.1819349 C235.055885,50.1301995 236.325625,51.2511328 235.381063,53.4465703 C231.979831,61.3527982 228.515987,69.2404545 224.782173,76.9987724 C223.344122,79.9861592 219.584051,79.4542133 218.02145,76.1935575 C215.410608,70.7480767 212.913543,65.2495339 210.12833,59.2555253 C207.460262,64.9431013 204.975316,70.1915897 202.539517,75.4626294 C201.667665,77.3503077 200.757439,78.9912479 198.200456,78.8725219 C195.807744,78.7617551 195.079967,77.1287741 194.307755,75.3492095 C191.278828,68.3642694 188.189308,61.4051969 185.160381,54.4202567 C184.551768,53.0167686 183.653659,51.2935824 185.751489,50.4591835 C187.692454,49.6871323 189.484631,50.1348424 190.454103,52.320994 C193.035323,58.1438779 195.662323,63.9475267 198.578819,70.4456237 C201.37817,64.5564124 203.901491,59.2541988 206.418079,53.9493321 C206.986971,52.7501324 207.45353,51.4295536 208.909758,51.0156705 C211.293717,50.3378043 212.68666,51.447462 213.650073,53.5467247 C216.172721,59.039298 218.78289,64.4934014 221.602438,70.4807772 C224.387651,64.2944191 226.955406,58.6731706 229.442372,53.0167686 C230.102825,51.5137894 230.788188,50.2237211 232.704242,50.1819349 Z M131.319393,67.3450823 C131.319393,70.1076192 131.251396,72.8728091 131.340937,75.6326929 C131.414321,77.8851719 131.130885,79.494275 128.178707,79.4883056 C125.14574,79.4823361 124.69332,77.8546613 124.728328,75.4376903 C124.799692,70.4657872 124.552612,65.4819452 124.821236,60.5233076 C125.007725,57.0902005 123.272774,55.8147243 120.314537,55.758346 C114.148289,55.6409465 107.975983,55.6409465 101.811082,55.7862035 C98.9780685,55.852531 97.4067156,57.1837222 97.5669478,60.4244797 C97.8241272,65.6059774 97.5837789,70.8093632 97.6618753,76.0021366 C97.696884,78.3149736 96.9199597,79.4896321 94.3771148,79.4730503 C91.9244847,79.4564684 90.9321221,78.4104851 90.9523195,76.0624946 C91.0001198,70.6475243 90.9422208,65.2325541 90.975883,59.8182471 C91.0055058,54.9836418 92.9565687,52.4884044 97.6470639,51.1698154 C101.706056,50.0289838 105.874786,50.2425581 110.015914,50.2889873 C114.935312,50.3447023 119.901165,49.814083 124.741793,51.1492539 C129.614738,52.4937106 131.306602,54.7183321 131.318047,59.7200826 C131.324106,62.2617491 131.319393,64.8034157 131.319393,67.3450823 Z M139.147074,42.0003155 C141.465728,42.0261832 142.771823,43.1915559 142.706518,45.7703658 C142.579275,50.8351273 142.66949,55.9045316 142.66949,60.9726095 C142.66949,66.0400241 142.625729,71.1081019 142.689687,76.1748532 C142.716617,78.3490659 141.907377,79.4388253 139.576604,79.4627032 C137.238425,79.4872443 136.019179,78.6654477 136.028605,76.2126598 C136.066306,65.9677272 136.050148,55.7221313 136.038703,45.4771986 C136.036684,43.3852319 136.988651,41.9757743 139.147074,42.0003155 Z M266.107745,50.314855 C267.947722,50.3646006 268.562395,51.6327808 268.545564,53.2531595 C268.528732,54.8894569 267.542429,55.6038031 265.975789,55.6747735 C263.749369,55.7755911 261.510831,55.4326784 259.295183,56.0302884 C256.936807,56.6670316 255.741797,57.9159769 255.812488,60.5034093 C255.95387,65.6842438 255.801043,70.8730375 255.879813,76.0571884 C255.915495,78.4131382 255.014693,79.4611113 252.53244,79.4757034 C249.992962,79.4902954 249.160831,78.3103307 249.211325,76.0207083 C249.27259,73.2641409 249.226136,70.5049204 249.228156,67.7470264 C249.230176,64.9891325 249.205266,62.2305753 249.236235,59.4733446 C249.275283,55.9274809 250.908574,53.3460179 254.235076,51.9392134 C258.028809,50.3347532 262.066257,50.2054148 266.107745,50.314855 Z M241.920018,50.1855165 C243.834053,50.2418948 245.200739,50.673023 245.167077,52.9599923 C245.108505,56.9310147 245.150919,60.9033637 245.152266,64.8750493 C245.152939,68.7366315 245.119277,72.5982136 245.166404,76.4591325 C245.191987,78.5444665 244.26291,79.4319273 242.13209,79.4544786 C239.973668,79.4776932 238.709988,78.84095 238.72076,76.4836736 C238.755769,68.6510691 238.751729,60.8178013 238.725473,52.9845335 C238.718067,50.7924124 239.888839,50.1258219 241.920018,50.1855165 Z M275.996833,61.2271078 C276.178609,62.9754985 277.707548,62.2472234 278.664228,62.2790606 C281.466272,62.3725823 284.273029,62.3122243 287.078439,62.3122243 C289.995608,62.3122243 292.932974,62.1006398 295.823887,62.371919 C298.746442,62.6451879 298.93293,61.1355759 298.686523,59.023711 C298.467718,57.1492983 297.159604,56.4667891 295.496017,56.1424481 C290.821679,55.2297828 286.112333,55.5362155 281.421838,55.85923 C280.012737,55.956068 278.57132,56.4986263 277.278691,57.1108284 C275.48988,57.9584927 275.841313,59.7327511 275.996833,61.2271078 Z" id="OnlyWire-logo"></path>
            </g>
        </g>
    </g>
</svg>